<svg width="24" height="24" viewBox="0 0 24 24" fill="none" xmlns="http://www.w3.org/2000/svg">
<g clip-path="url(#clip0_21_3239)">
<path d="M24 17.7499C24 18.4277 23.719 19.0777 23.219 19.5569C22.7189 20.0362 22.0406 20.3054 21.3333 20.3054H2.66667C1.95942 20.3054 1.28115 20.0362 0.781049 19.5569C0.280952 19.0777 0 18.4277 0 17.7499V15.1943H24V17.7499Z" fill="#CE2028"/>
<path d="M0 8.80566H24V15.1946H0V8.80566Z" fill="#22408C"/>
<path d="M21.3333 3.69434H2.66667C1.95942 3.69434 1.28115 3.96358 0.781049 4.44284C0.280952 4.9221 0 5.57212 0 6.24989L0 8.80545H24V6.24989C24 5.57212 23.719 4.9221 23.219 4.44284C22.7189 3.96358 22.0406 3.69434 21.3333 3.69434Z" fill="white"/>
</g>
<defs>
<clipPath id="clip0_21_3239">
<rect width="24" height="23" fill="white" transform="translate(0 0.5)"/>
</clipPath>
</defs>
</svg>
