<svg width="16" height="16" viewBox="0 0 16 16" fill="none" xmlns="http://www.w3.org/2000/svg">
<path d="M7.99967 9.33301C8.13153 9.33301 8.26042 9.29391 8.37006 9.22065C8.47969 9.1474 8.56514 9.04328 8.61559 8.92146C8.66605 8.79965 8.67926 8.6656 8.65353 8.53628C8.62781 8.40696 8.56431 8.28817 8.47108 8.19494C8.37784 8.1017 8.25906 8.03821 8.12973 8.01248C8.00041 7.98676 7.86637 7.99996 7.74455 8.05042C7.62273 8.10088 7.51862 8.18633 7.44536 8.29596C7.37211 8.40559 7.33301 8.53449 7.33301 8.66634C7.33301 8.84315 7.40325 9.01272 7.52827 9.13775C7.65329 9.26277 7.82286 9.33301 7.99967 9.33301ZM11.333 9.33301C11.4649 9.33301 11.5938 9.29391 11.7034 9.22065C11.813 9.1474 11.8985 9.04328 11.9489 8.92146C11.9994 8.79965 12.0126 8.6656 11.9869 8.53628C11.9611 8.40696 11.8976 8.28817 11.8044 8.19494C11.7112 8.1017 11.5924 8.03821 11.4631 8.01248C11.3337 7.98676 11.1997 7.99996 11.0779 8.05042C10.9561 8.10088 10.8519 8.18633 10.7787 8.29596C10.7054 8.40559 10.6663 8.53449 10.6663 8.66634C10.6663 8.84315 10.7366 9.01272 10.8616 9.13775C10.9866 9.26277 11.1562 9.33301 11.333 9.33301ZM7.99967 11.9997C8.13153 11.9997 8.26042 11.9606 8.37006 11.8873C8.47969 11.8141 8.56514 11.7099 8.61559 11.5881C8.66605 11.4663 8.67926 11.3323 8.65353 11.2029C8.62781 11.0736 8.56431 10.9548 8.47108 10.8616C8.37784 10.7684 8.25906 10.7049 8.12973 10.6792C8.00041 10.6534 7.86637 10.6666 7.74455 10.7171C7.62273 10.7675 7.51862 10.853 7.44536 10.9626C7.37211 11.0723 7.33301 11.2012 7.33301 11.333C7.33301 11.5098 7.40325 11.6794 7.52827 11.8044C7.65329 11.9294 7.82286 11.9997 7.99967 11.9997ZM11.333 11.9997C11.4649 11.9997 11.5938 11.9606 11.7034 11.8873C11.813 11.8141 11.8985 11.7099 11.9489 11.5881C11.9994 11.4663 12.0126 11.3323 11.9869 11.2029C11.9611 11.0736 11.8976 10.9548 11.8044 10.8616C11.7112 10.7684 11.5924 10.7049 11.4631 10.6792C11.3337 10.6534 11.1997 10.6666 11.0779 10.7171C10.9561 10.7675 10.8519 10.853 10.7787 10.9626C10.7054 11.0723 10.6663 11.2012 10.6663 11.333C10.6663 11.5098 10.7366 11.6794 10.8616 11.8044C10.9866 11.9294 11.1562 11.9997 11.333 11.9997ZM4.66634 9.33301C4.7982 9.33301 4.92709 9.29391 5.03672 9.22065C5.14635 9.1474 5.2318 9.04328 5.28226 8.92146C5.33272 8.79965 5.34592 8.6656 5.3202 8.53628C5.29447 8.40696 5.23098 8.28817 5.13775 8.19494C5.04451 8.1017 4.92572 8.03821 4.7964 8.01248C4.66708 7.98676 4.53304 7.99996 4.41122 8.05042C4.2894 8.10088 4.18528 8.18633 4.11203 8.29596C4.03877 8.40559 3.99967 8.53449 3.99967 8.66634C3.99967 8.84315 4.06991 9.01272 4.19494 9.13775C4.31996 9.26277 4.48953 9.33301 4.66634 9.33301ZM12.6663 2.66634H11.9997V1.99967C11.9997 1.82286 11.9294 1.65329 11.8044 1.52827C11.6794 1.40325 11.5098 1.33301 11.333 1.33301C11.1562 1.33301 10.9866 1.40325 10.8616 1.52827C10.7366 1.65329 10.6663 1.82286 10.6663 1.99967V2.66634H5.33301V1.99967C5.33301 1.82286 5.26277 1.65329 5.13775 1.52827C5.01272 1.40325 4.84315 1.33301 4.66634 1.33301C4.48953 1.33301 4.31996 1.40325 4.19494 1.52827C4.06991 1.65329 3.99967 1.82286 3.99967 1.99967V2.66634H3.33301C2.80257 2.66634 2.29387 2.87705 1.91879 3.25213C1.54372 3.6272 1.33301 4.13591 1.33301 4.66634V12.6663C1.33301 13.1968 1.54372 13.7055 1.91879 14.0806C2.29387 14.4556 2.80257 14.6663 3.33301 14.6663H12.6663C13.1968 14.6663 13.7055 14.4556 14.0806 14.0806C14.4556 13.7055 14.6663 13.1968 14.6663 12.6663V4.66634C14.6663 4.13591 14.4556 3.6272 14.0806 3.25213C13.7055 2.87705 13.1968 2.66634 12.6663 2.66634ZM13.333 12.6663C13.333 12.8432 13.2628 13.0127 13.1377 13.1377C13.0127 13.2628 12.8432 13.333 12.6663 13.333H3.33301C3.1562 13.333 2.98663 13.2628 2.8616 13.1377C2.73658 13.0127 2.66634 12.8432 2.66634 12.6663V6.66634H13.333V12.6663ZM13.333 5.33301H2.66634V4.66634C2.66634 4.48953 2.73658 4.31996 2.8616 4.19494C2.98663 4.06991 3.1562 3.99967 3.33301 3.99967H12.6663C12.8432 3.99967 13.0127 4.06991 13.1377 4.19494C13.2628 4.31996 13.333 4.48953 13.333 4.66634V5.33301ZM4.66634 11.9997C4.7982 11.9997 4.92709 11.9606 5.03672 11.8873C5.14635 11.8141 5.2318 11.7099 5.28226 11.5881C5.33272 11.4663 5.34592 11.3323 5.3202 11.2029C5.29447 11.0736 5.23098 10.9548 5.13775 10.8616C5.04451 10.7684 4.92572 10.7049 4.7964 10.6792C4.66708 10.6534 4.53304 10.6666 4.41122 10.7171C4.2894 10.7675 4.18528 10.853 4.11203 10.9626C4.03877 11.0723 3.99967 11.2012 3.99967 11.333C3.99967 11.5098 4.06991 11.6794 4.19494 11.8044C4.31996 11.9294 4.48953 11.9997 4.66634 11.9997Z" fill="black"/>
</svg>
