<svg width="16" height="16" viewBox="0 0 16 16" fill="none" xmlns="http://www.w3.org/2000/svg">
<path d="M10.9997 7.99967C11.2185 7.99967 11.4353 7.95657 11.6375 7.87281C11.8397 7.78905 12.0234 7.66628 12.1782 7.51152C12.333 7.35675 12.4557 7.17302 12.5395 6.97081C12.6232 6.7686 12.6663 6.55188 12.6663 6.33301C12.6663 5.89098 12.4907 5.46706 12.1782 5.1545C11.8656 4.84194 11.4417 4.66634 10.9997 4.66634C10.5576 4.66634 10.1337 4.84194 9.82116 5.1545C9.5086 5.46706 9.33301 5.89098 9.33301 6.33301C9.33301 6.55188 9.37612 6.7686 9.45988 6.97081C9.54363 7.17302 9.6664 7.35675 9.82116 7.51152C10.1337 7.82408 10.5576 7.99967 10.9997 7.99967ZM5.99967 7.33301C6.53011 7.33301 7.03882 7.12229 7.41389 6.74722C7.78896 6.37215 7.99967 5.86344 7.99967 5.33301C7.99967 4.80257 7.78896 4.29387 7.41389 3.91879C7.03882 3.54372 6.53011 3.33301 5.99967 3.33301C5.46924 3.33301 4.96053 3.54372 4.58546 3.91879C4.21039 4.29387 3.99967 4.80257 3.99967 5.33301C3.99967 5.86344 4.21039 6.37215 4.58546 6.74722C4.96053 7.12229 5.46924 7.33301 5.99967 7.33301ZM10.9997 9.33301C9.77967 9.33301 7.33301 9.94634 7.33301 11.1663V12.6663H14.6663V11.1663C14.6663 9.94634 12.2197 9.33301 10.9997 9.33301ZM5.99967 8.66634C4.44634 8.66634 1.33301 9.44634 1.33301 10.9997V12.6663H5.99967V11.1663C5.99967 10.5997 6.21967 9.60634 7.57967 8.85301C6.99967 8.73301 6.43967 8.66634 5.99967 8.66634Z" fill="black"/>
</svg>
